<?xml version="1.0" encoding="iso-8859-1"?>
<!-- Generator: Adobe Illustrator 19.0.0, SVG Export Plug-In . SVG Version: 6.00 Build 0)  -->
<svg version="1.1" id="Layer_1" xmlns="http://www.w3.org/2000/svg" xmlns:xlink="http://www.w3.org/1999/xlink" x="0px" y="0px"
	 viewBox="0 0 511.999 511.999" style="fill:#7b7b7b;enable-background:new 0 0 511.999 511.999;" xml:space="preserve">
<g>
	<g>
		<g>
			<path d="M425.669,213.241h-20.29v-79.858C405.379,59.836,345.543,0,271.996,0h-31.989c-73.547,0-133.383,59.836-133.383,133.384
				v79.858H86.333c-18.208,0-33.022,14.813-33.022,33.021v232.716c0,18.208,14.814,33.021,33.022,33.021h339.336
				c18.206,0,33.019-14.813,33.019-33.021V246.262C458.688,228.054,443.875,213.241,425.669,213.241z M240.006,21.54h31.989
				c61.671,0,111.844,50.173,111.844,111.844v79.858h-42.432v-79.858c0-38.275-31.137-69.413-69.411-69.413h-31.989
				c-38.275,0-69.413,31.138-69.413,69.413v79.858h-42.43v-79.858h-0.001C128.164,71.713,178.336,21.54,240.006,21.54z
				 M319.866,213.241H192.134v-79.858c0-26.397,21.475-47.873,47.873-47.873h31.989c26.396,0,47.871,21.475,47.871,47.873V213.241z
				 M437.148,478.978c0,6.33-5.149,11.481-11.479,11.481H86.333c-6.332,0-11.482-5.151-11.482-11.481V246.262
				c0-6.331,5.15-11.481,11.482-11.481h339.336c6.33,0,11.479,5.15,11.479,11.481V478.978z"/>
			<path d="M309.417,330.562c0-29.508-23.963-53.514-53.417-53.514c-29.456,0-53.42,24.006-53.42,53.514
				c0,16.491,7.674,32.019,20.429,42.084l-9.642,63.15c-0.475,3.105,0.429,6.263,2.476,8.643c2.046,2.383,5.03,3.752,8.17,3.752
				h63.972c0.009,0,0.015,0,0.023,0c5.947,0,10.77-4.822,10.77-10.77c0-0.797-0.087-1.578-0.251-2.326l-9.535-62.449
				C301.742,362.581,309.417,347.05,309.417,330.562z M271.921,358.268c-3.832,2.223-5.913,6.564-5.244,10.942l8.769,57.44h-38.894
				l8.772-57.439c0.669-4.379-1.412-8.722-5.244-10.943c-9.844-5.708-15.958-16.324-15.958-27.708c0-17.63,14.3-31.974,31.88-31.974
				c17.577,0,31.877,14.344,31.877,31.974C287.877,341.944,281.763,352.561,271.921,358.268z"/>
			<path d="M405.271,397.343c-5.948,0-10.77,4.824-10.77,10.77v50.467c0,5.947,4.822,10.77,10.77,10.77s10.77-4.823,10.77-10.77
				v-50.467C416.041,402.166,411.22,397.343,405.271,397.343z"/>
			<path d="M405.271,365.687c-5.948,0-10.77,4.823-10.77,10.77v0.785c0,5.946,4.822,10.77,10.77,10.77s10.77-4.824,10.77-10.77
				v-0.785C416.041,370.51,411.22,365.687,405.271,365.687z"/>
			<path d="M106.729,337.229c-5.947,0-10.77,4.823-10.77,10.77v0.784c0,5.948,4.823,10.77,10.77,10.77s10.77-4.822,10.77-10.77
				v-0.784C117.499,342.052,112.678,337.229,106.729,337.229z"/>
			<path d="M106.729,255.891c-5.947,0-10.77,4.822-10.77,10.77v50.465c0,5.948,4.823,10.77,10.77,10.77s10.77-4.822,10.77-10.77
				v-50.465C117.499,260.711,112.678,255.891,106.729,255.891z"/>
		</g>
	</g>
</g>
<g>
</g>
<g>
</g>
<g>
</g>
<g>
</g>
<g>
</g>
<g>
</g>
<g>
</g>
<g>
</g>
<g>
</g>
<g>
</g>
<g>
</g>
<g>
</g>
<g>
</g>
<g>
</g>
<g>
</g>
</svg>
